# xmcd CD database file
#
# Track frame offsets:
#	150
#	14191
#	31777
#	42002
#	58279
#	71811
#	84657
#	99358
#	112694
#	125339
#	143850
#	158290
#
# Disc length: 2334 seconds
#
# Revision: 0
# Processed by: cddbd v1.5.1PL0 Copyright (c) Steve Scherf et al.
# Submitted via: NeoAudio 9.9.9
#
DISCID=96091c0c
DTITLE=get up and dance workshop nr  39 - get up and dance workshop nr 39
DYEAR=2005
DGENRE=Country
TTITLE0=be loco - david lee murphy
TTITLE1=badonkadonk - trace adkins
TTITLE2=rama lama ding dong - rocky sharp and the replays
TTITLE3=make it up - miranda lambert
TTITLE4=knock yourself out - toby keith
TTITLE5=back in time - neil scott johnson
TTITLE6=play chicken with the train - cowboy troy
TTITLE7=double d mambo - lou bega
TTITLE8=black horse - kt tunstall
TTITLE9=pon de replay - rihanna
TTITLE10=under you spell - aria victoria
TTITLE11=heat on the street - glenn frey
EXTD=YEAR: 2005
EXTT0=
EXTT1=
EXTT2=
EXTT3=
EXTT4=
EXTT5=
EXTT6=
EXTT7=
EXTT8=
EXTT9=
EXTT10=
EXTT11=
PLAYORDER=
